<svg width="108" height="108" viewBox="0 0 108 108" fill="none" xmlns="http://www.w3.org/2000/svg">
<circle cx="54" cy="54" r="52" stroke="#F4F4F4" stroke-width="3"/>
<path d="M30.0534 64.2833C30.27 64.9421 30.3134 65.5814 30.1836 66.2013C30.0523 66.817 29.7488 67.3713 29.2733 67.8644C28.8021 68.3559 28.1959 68.7426 27.4548 69.0247C26.2325 69.49 25.1183 69.4582 24.1124 68.9292C23.1064 68.4002 22.3271 67.4096 21.7742 65.9572L21.5991 65.4972C21.2522 64.5857 21.1066 63.7293 21.1624 62.9278C21.2208 62.1205 21.4777 61.4181 21.9329 60.8206C22.3865 60.2188 23.0052 59.7688 23.7889 59.4705C24.9176 59.0409 25.9382 58.9937 26.8509 59.329C27.762 59.66 28.463 60.3294 28.9539 61.3372L26.7178 62.1883C26.4852 61.6284 26.1877 61.2759 25.8253 61.131C25.4629 60.9861 25.0071 61.0182 24.4576 61.2274C23.8997 61.4398 23.5702 61.8041 23.4693 62.3204C23.3684 62.8367 23.4858 63.5551 23.8216 64.4757L24.072 65.1338C24.4498 66.1261 24.8432 66.7883 25.2524 67.1202C25.6658 67.4504 26.177 67.4997 26.7861 67.2678C27.3015 67.0717 27.6492 66.8003 27.8294 66.4538C28.0096 66.1072 28.0077 65.6667 27.8237 65.132L30.0534 64.2833ZM39.0161 59.3723C39.3614 60.2795 39.4988 61.1464 39.4282 61.973C39.3576 62.7996 39.0835 63.5208 38.6059 64.1365C38.131 64.7464 37.4975 65.2021 36.7053 65.5037C35.9131 65.8052 35.1414 65.8917 34.3903 65.7631C33.6375 65.6303 32.9598 65.2909 32.357 64.745C31.7585 64.1975 31.2837 63.4883 30.9327 62.6174L30.7333 62.0935C30.3864 61.1821 30.2469 60.316 30.3149 59.4953C30.3855 58.6687 30.6595 57.9475 31.1371 57.3318C31.6189 56.7144 32.258 56.2541 33.0545 55.9509C33.8424 55.651 34.6165 55.5709 35.3768 55.7106C36.137 55.8504 36.8197 56.2025 37.4247 56.7671C38.0323 57.3257 38.5084 58.0515 38.8532 58.9443L39.0161 59.3723ZM36.587 59.8508C36.2352 58.9265 35.813 58.2851 35.3205 57.9264C34.8307 57.5618 34.2982 57.489 33.7232 57.7078C32.5988 58.1358 32.3257 59.2053 32.9038 60.9163L33.1576 61.6023C33.5045 62.5138 33.9224 63.1568 34.4113 63.5315C34.9001 63.9062 35.4427 63.9801 36.039 63.7531C36.6054 63.5375 36.9504 63.1307 37.0739 62.5327C37.1973 61.9347 37.0893 61.1834 36.7499 60.2788L36.587 59.8508ZM50.162 60.2352L47.9323 61.0839L42.4325 56.5505L44.6357 62.3388L42.3932 63.1923L38.8525 53.8903L41.095 53.0367L46.5884 57.5725L44.3852 51.7843L46.6213 50.9332L50.162 60.2352ZM56.3326 49.2189L53.5408 50.2816L56.4225 57.8523L54.18 58.7058L51.2983 51.1351L48.5575 52.1784L47.8985 50.447L55.6736 47.4875L56.3326 49.2189ZM64.545 52.771L61.472 53.9407L61.5968 55.8827L59.2011 56.7946L59.0719 46.194L61.1802 45.3915L68.1581 53.3852L65.7495 54.302L64.545 52.771ZM61.3497 52.005L63.3494 51.2439L61.1183 48.3994L61.3497 52.005ZM75.5516 46.965C75.7682 47.6237 75.8116 48.263 75.6819 48.883C75.5505 49.4986 75.2471 50.053 74.7716 50.546C74.3003 51.0375 73.6942 51.4243 72.9531 51.7064C71.7307 52.1716 70.6165 52.1398 69.6106 51.6108C68.6047 51.0819 67.8253 50.0912 67.2725 48.6388L67.0974 48.1788C66.7504 47.2674 66.6049 46.4109 66.6606 45.6095C66.7191 44.8021 66.9759 44.0997 67.4311 43.5022C67.8848 42.9004 68.5034 42.4504 69.2871 42.1521C70.4158 41.7225 71.4365 41.6753 72.3492 42.0106C73.2602 42.3416 73.9612 43.011 74.4521 44.0188L72.2161 44.87C71.9834 44.31 71.6859 43.9575 71.3235 43.8126C70.9612 43.6678 70.5053 43.6999 69.9559 43.909C69.3979 44.1214 69.0685 44.4857 68.9675 45.002C68.8666 45.5183 68.984 46.2367 69.3198 47.1573L69.5703 47.8154C69.948 48.8078 70.3415 49.4699 70.7506 49.8018C71.164 50.1321 71.6753 50.1813 72.2843 49.9494C72.7997 49.7533 73.1475 49.4819 73.3276 49.1354C73.5078 48.7889 73.5059 48.3483 73.3219 47.8137L75.5516 46.965ZM82.5634 39.2344L79.7715 40.2971L82.6532 47.8678L80.4107 48.7214L77.529 41.1507L74.7883 42.194L74.1292 40.4626L81.9044 37.5031L82.5634 39.2344ZM50.4984 66.5773L55.0382 72.2588L54.6447 64.999L57.5963 63.8755L61.1371 73.1776L58.8882 74.0336L58.0614 71.8614L56.5861 67.3321L56.8566 74.8069L55.3744 75.3711L50.5974 69.6044L52.5096 73.9746L53.3364 76.1468L51.0939 77.0004L47.5532 67.6984L50.4984 66.5773ZM67.3601 66.2959L63.8335 67.6382L64.6774 69.8551L68.8428 68.2696L69.4994 69.9945L63.0915 72.4336L59.5508 63.1316L65.9715 60.6876L66.6305 62.419L62.4523 64.0094L63.1988 65.9707L66.7254 64.6284L67.3601 66.2959Z" fill="#F4F4F4"/>
</svg>
