<svg width="79" height="106" viewBox="0 0 79 106" fill="none" xmlns="http://www.w3.org/2000/svg">
<path d="M17.4582 21.2601V77.6647C17.4582 83.7354 14.3885 86.7707 8.24907 86.7707C6.6265 86.7707 4.54348 86.5742 2 86.1811V102.886C5.28898 103.629 8.7753 104 12.459 104C21.0103 104 27.676 101.729 32.456 97.1869C37.236 92.6448 39.1986 85.5522 39.2425 77.1669V33.1175V27.4836C39.2425 19.404 41.6325 13.1368 46.4125 8.68208C51.1925 4.22736 57.902 2 66.541 2C69.6985 2 73.1629 2.45857 76.9342 3.37572L77 19.6224C75.6406 19.2293 73.8207 19.0328 71.5403 19.0328C64.8308 19.0328 61.476 21.9152 61.476 27.6802V33.1175H75.3555V48.447H61.476V83.8751" stroke="white" stroke-width="3"/>
</svg>
